<svg width="100" height="80" viewBox="0 0 100 80" fill="none" xmlns="http://www.w3.org/2000/svg">
<g clip-path="url(#clip0)">
<path d="M87.7111 0H11.4889C5.15342 0 0 5.13882 0 11.4563V68.5437C0 74.8612 5.15342 80 11.4889 80H87.7111C94.0466 80 99.2 74.8612 99.2 68.5437V11.4563C99.2 5.13882 94.0466 0 87.7111 0ZM95.6428 11.4563V68.5437C95.6428 72.9034 92.0855 76.4506 87.7134 76.4506H11.4889C7.11674 76.4506 3.55949 72.9034 3.55949 68.5437V11.4563C3.55949 7.09658 7.11674 3.5494 11.4889 3.5494H87.7111C92.0855 3.54717 95.6428 7.09658 95.6428 11.4563Z" fill="#7DB945"/>
<path d="M32.6753 33.7997C35.0707 33.7997 37.0206 31.8553 37.0206 29.4668C37.0206 27.0782 35.0707 25.1338 32.6753 25.1338C30.28 25.1338 28.3301 27.0782 28.3301 29.4668C28.3301 31.8553 30.28 33.7997 32.6753 33.7997ZM31.8873 29.4668C31.8873 29.0337 32.241 28.681 32.6753 28.681C33.1096 28.681 33.4633 29.0337 33.4633 29.4668C33.4633 29.8998 33.1096 30.2525 32.6753 30.2525C32.241 30.2525 31.8873 29.8998 31.8873 29.4668Z" fill="#7DB945"/>
<path d="M77.2084 54.855C80.7947 51.3503 83.0781 47.1379 83.9915 42.3317C84.8624 37.7509 84.4572 32.851 82.7871 27.768C81.2156 22.9841 77.2889 19.4682 72.5385 18.5931C68.229 17.7984 63.9823 19.3119 61.0966 22.6448C58.5311 19.841 55.1418 18.323 51.5241 18.3877C48.0094 18.4413 44.7051 19.9883 42.3993 22.6448C39.0592 18.9927 34.3848 17.5595 29.8157 18.8096C25.1704 20.0798 21.7587 23.7877 20.9147 28.4845C20.42 31.237 20.411 33.2997 20.4043 34.9561C20.3931 37.4964 20.3864 39.1752 18.788 41.4566C17.1582 43.7827 15.9404 46.2293 15.1703 48.7318C14.0756 52.2923 15.2218 55.9801 18.2395 58.5964C20.5252 60.581 23.4153 61.6123 26.3368 61.6123C28.1031 61.6123 29.8806 61.235 31.5439 60.4627C33.1916 59.697 34.7452 58.8174 36.1646 57.8419C39.733 61.5944 45.4774 62.6771 50.2436 60.4627C51.8912 59.697 53.4426 58.8174 54.8642 57.8419C57.1432 60.2394 60.3624 61.6101 63.745 61.6101C66.9552 61.6101 69.4805 60.4314 72.5139 58.5317C72.9168 58.2794 73.1967 57.8865 73.3019 57.4245C73.4071 56.9624 73.3265 56.4869 73.0735 56.0851C72.5519 55.2591 71.4505 55.0068 70.6199 55.527C69.626 56.1498 68.5559 56.7302 67.4388 57.2481C64.1726 58.7639 60.2124 58.0964 57.6782 55.6386C65.33 48.7943 67.6694 38.6595 64.092 27.7702C63.8592 27.0581 63.5659 26.3616 63.2234 25.6941C65.1307 22.9394 68.182 21.5576 71.4259 21.9951C75.1197 22.4907 78.1777 25.1271 79.409 28.873C82.4357 38.0858 80.7701 46.4146 74.7212 52.3214C74.3809 52.654 74.1929 53.096 74.1884 53.5715C74.1839 54.0447 74.3652 54.4934 74.6966 54.8327C75.3794 55.5292 76.5077 55.5404 77.2084 54.855ZM38.9763 55.6364C46.6259 48.792 48.9653 38.6573 45.3879 27.768C45.1528 27.0536 44.8618 26.3571 44.5193 25.6941C46.4065 22.9774 49.5943 21.5822 52.8852 22.042C56.5947 22.5622 59.5564 25.241 60.8146 29.2145C62.6928 35.1235 62.6077 40.8137 60.5683 45.6668C58.4908 50.6136 54.3985 54.6184 48.7347 57.2481C45.4707 58.7639 41.5105 58.0964 38.9763 55.6364ZM23.9683 35.878C23.8922 33.4537 24.0422 31.1767 24.416 29.1096C24.9242 26.2812 26.7218 23.9618 29.3456 22.7452C30.5209 22.2005 31.7589 21.9282 33.0013 21.9282C34.1901 21.9282 35.381 22.1782 36.5183 22.6782C39.1666 23.8413 41.159 26.1718 42.1284 29.2391C45.9878 41.47 41.468 51.9396 30.0396 57.2459C26.4644 58.9045 22.7258 57.7906 20.6036 55.9511C18.6582 54.2635 17.8992 51.953 18.5686 49.7698C19.229 47.6223 20.2834 45.5083 21.7005 43.488C23.2474 41.2825 24.0511 38.5814 23.9683 35.878Z" fill="#7DB945"/>
<path d="M51.3746 25.1338C48.9792 25.1338 47.0293 27.0782 47.0293 29.4668C47.0293 31.8553 48.9792 33.7997 51.3746 33.7997C53.7699 33.7997 55.7198 31.8553 55.7198 29.4668C55.7198 27.0782 53.7699 25.1338 51.3746 25.1338ZM52.1603 29.4668C52.1603 29.8998 51.8066 30.2525 51.3723 30.2525C50.938 30.2525 50.5843 29.8998 50.5843 29.4668C50.5843 29.0337 50.938 28.681 51.3723 28.681C51.8066 28.681 52.1603 29.0337 52.1603 29.4668Z" fill="#7DB945"/>
<path d="M85.0386 7.61448H41.8613C40.8808 7.61448 40.0816 8.41142 40.0816 9.38918C40.0816 10.3669 40.8808 11.1639 41.8613 11.1639H85.0363C86.6885 11.1639 88.0339 12.6774 88.0339 14.5347V65.4675C88.0339 67.327 86.6885 68.8383 85.0363 68.8383H14.1623C12.5101 68.8383 11.1647 67.327 11.1647 65.4675V14.5347C11.1647 12.6752 12.5101 11.1639 14.1623 11.1639H36.4728C37.4534 11.1639 38.2526 10.3669 38.2526 9.38918C38.2526 8.41142 37.4556 7.61448 36.4728 7.61448H14.1623C10.5468 7.61448 7.60742 10.7196 7.60742 14.5347V65.4675C7.60742 69.2826 10.549 72.3877 14.1623 72.3877H85.0363C88.6518 72.3877 91.5934 69.2848 91.5934 65.4675V14.5347C91.5934 10.7196 88.6518 7.61448 85.0386 7.61448Z" fill="#7DB945"/>
<path d="M70.0738 25.1338C67.6784 25.1338 65.7285 27.0782 65.7285 29.4668C65.7285 31.8553 67.6784 33.7997 70.0738 33.7997C72.4692 33.7997 74.419 31.8553 74.419 29.4668C74.419 27.0782 72.4692 25.1338 70.0738 25.1338ZM70.8618 29.4668C70.8618 29.8998 70.5081 30.2525 70.0738 30.2525C69.6395 30.2525 69.2858 29.8998 69.2858 29.4668C69.2858 29.0337 69.6395 28.681 70.0738 28.681C70.5081 28.681 70.8618 29.0337 70.8618 29.4668Z" fill="#7DB945"/>
</g>
<defs>
<clipPath id="clip0">
<rect width="99.2" height="80" fill="white"/>
</clipPath>
</defs>
</svg>
