<svg width="131" height="37" viewBox="0 0 131 37" fill="none" xmlns="http://www.w3.org/2000/svg">
<g clip-path="url(#clip0)">
<path d="M41.2793 0H44.9661L49.1694 13.4132L53.3432 0H57.0529L51.2547 17.4521H47.0514L41.2793 0Z" fill="white"/>
<path d="M70.0553 11.218C70.0553 14.9319 67.3522 17.8003 64.0576 17.8003C62.2633 17.8003 60.9624 17.1271 60.0767 15.9798V22.4361H56.9062V4.98722H60.0767V6.45953C60.9624 5.31219 62.2633 4.63904 64.0576 4.63904C67.3522 4.63572 70.0553 7.50407 70.0553 11.218ZM66.8849 11.218C66.8849 9.12228 65.4337 7.70303 63.4693 7.70303C61.5279 7.70303 60.0767 9.1256 60.0767 11.218C60.0767 13.3137 61.5279 14.733 63.4693 14.733C65.4337 14.7363 66.8849 13.3137 66.8849 11.218Z" fill="white"/>
<path d="M78.5332 4.73853V8.32976C76.8859 8.1308 74.7974 8.8769 74.7974 11.4965V17.4554H71.627V4.98723H74.7974V7.13268C75.4347 5.43489 76.984 4.73853 78.5332 4.73853Z" fill="white"/>
<path d="M78.6055 11.218C78.6055 7.50409 81.4817 4.63574 85.0934 4.63574C88.705 4.63574 91.6041 7.50409 91.6041 11.218C91.6041 14.9319 88.705 17.8003 85.0934 17.8003C81.4817 17.8003 78.6055 14.9353 78.6055 11.218ZM88.4337 11.218C88.4337 9.19857 86.9825 7.776 85.0901 7.776C83.2238 7.776 81.7726 9.19857 81.7726 11.218C81.7726 13.2375 83.2238 14.66 85.0901 14.66C86.9858 14.66 88.4337 13.2375 88.4337 11.218Z" fill="white"/>
<path d="M100.821 17.4521L96.3501 11.7917V17.4521H93.1797V0H96.3501V10.4719L100.576 4.98727H104.361L99.4225 11.1451L104.508 17.4521H100.821Z" fill="white"/>
<path d="M105.168 15.6582C105.168 14.4877 106.103 13.5393 107.257 13.5393C108.41 13.5393 109.345 14.4877 109.345 15.6582C109.345 16.8288 108.41 17.7772 107.257 17.7772C106.103 17.7772 105.168 16.8288 105.168 15.6582Z" fill="white"/>
<path d="M118.242 4.73853V8.32976C116.595 8.1308 114.506 8.8769 114.506 11.4965V17.4554H111.336V4.98723H114.506V7.13268C115.147 5.43489 116.693 4.73853 118.242 4.73853Z" fill="white"/>
<path d="M130.7 4.9873V17.4522H127.53V16.0561C126.791 17.1769 125.513 17.8004 123.869 17.8004C121.264 17.8004 119.225 15.9567 119.225 12.6406V4.9873H122.395V12.2427C122.395 13.9372 123.402 14.8093 124.827 14.8093C126.376 14.8093 127.53 13.8875 127.53 11.7188V4.9873H130.7Z" fill="white"/>
<path d="M51.3147 34.1084H49.3504V25.9013H45.8335V34.1084H43.8691V23.9946H51.3147V34.1084Z" fill="white"/>
<path d="M56.4984 32.6195C57.2109 32.6195 57.7796 32.3144 58.0934 31.8966L59.574 32.7621C58.904 33.7436 57.8352 34.3074 56.469 34.3074C54.0764 34.3074 52.5664 32.646 52.5664 30.4939C52.5664 28.3419 54.0895 26.6805 56.3251 26.6805C58.4333 26.6805 59.927 28.3717 59.927 30.4939C59.927 30.7692 59.8976 31.0146 59.8551 31.2599H54.485C54.7465 32.215 55.5309 32.6195 56.4984 32.6195ZM58.0966 29.8175C57.8679 28.7763 57.0998 28.3584 56.3317 28.3584C55.3479 28.3584 54.6811 28.8923 54.4654 29.8175H58.0966Z" fill="white"/>
<path d="M68.693 30.4974C68.693 32.6495 67.1274 34.3108 65.2186 34.3108C64.1793 34.3108 63.4242 33.9195 62.9111 33.2563V37.0001H61.0742V26.8862H62.9111V27.7385C63.4242 27.0753 64.1793 26.684 65.2186 26.684C67.1274 26.6806 68.693 28.342 68.693 30.4974ZM66.8561 30.4974C66.8561 29.2837 66.0161 28.4613 64.8755 28.4613C63.7511 28.4613 62.9111 29.2837 62.9111 30.4974C62.9111 31.711 63.7511 32.5334 64.8755 32.5334C66.0161 32.5334 66.8561 31.711 66.8561 30.4974Z" fill="white"/>
<path d="M73.4105 32.6195C74.123 32.6195 74.6917 32.3144 75.0055 31.8966L76.4861 32.7621C75.8161 33.7436 74.7473 34.3074 73.3811 34.3074C70.9885 34.3074 69.4785 32.646 69.4785 30.4939C69.4785 28.3419 71.0016 26.6805 73.2373 26.6805C75.3454 26.6805 76.8424 28.3717 76.8424 30.4939C76.8424 30.7692 76.813 31.0146 76.7705 31.2599H71.4004C71.6586 32.215 72.4397 32.6195 73.4105 32.6195ZM75.0055 29.8175C74.7767 28.7763 74.0086 28.3584 73.2405 28.3584C72.2567 28.3584 71.5899 28.8923 71.3742 29.8175H75.0055Z" fill="white"/>
<path d="M82.4112 34.1085L79.8193 30.829V34.1085H77.9824V26.8829H79.8193V30.063L82.2707 26.8829H84.4638L81.6006 30.451L84.5488 34.1085H82.4112Z" fill="white"/>
<path d="M92.9391 30.4974C92.9391 32.6495 91.3735 34.3108 89.4647 34.3108C88.4254 34.3108 87.6703 33.9195 87.1572 33.2563V37.0001H85.3203V26.8862H87.1572V27.7385C87.6703 27.0753 88.4254 26.684 89.4647 26.684C91.3735 26.6806 92.9391 28.342 92.9391 30.4974ZM91.1022 30.4974C91.1022 29.2837 90.2622 28.4613 89.1215 28.4613C87.9972 28.4613 87.1572 29.2837 87.1572 30.4974C87.1572 31.711 87.9972 32.5334 89.1215 32.5334C90.2622 32.5334 91.1022 31.711 91.1022 30.4974Z" fill="white"/>
<path d="M97.6546 32.6195C98.3671 32.6195 98.9358 32.3144 99.2496 31.8966L100.73 32.7621C100.06 33.7436 98.9914 34.3073 97.6252 34.3073C95.2327 34.3073 93.7227 32.646 93.7227 30.4939C93.7227 28.3418 95.2458 26.6805 97.4814 26.6805C99.5895 26.6805 101.086 28.3717 101.086 30.4939C101.086 30.7692 101.057 31.0145 101.015 31.2599H95.6445C95.9027 32.2149 96.6839 32.6195 97.6546 32.6195ZM95.0758 25.1485C95.0758 24.6147 95.517 24.167 96.0433 24.167C96.5695 24.167 96.9976 24.6147 96.9976 25.1485C96.9976 25.6824 96.5695 26.1168 96.0433 26.1168C95.517 26.1168 95.0758 25.6824 95.0758 25.1485ZM99.2496 29.8175C99.0208 28.7762 98.2527 28.3584 97.4847 28.3584C96.5008 28.3584 95.8341 28.8923 95.6184 29.8175H99.2496ZM97.7821 25.1485C97.7821 24.6147 98.2233 24.167 98.7495 24.167C99.2758 24.167 99.7039 24.6147 99.7039 25.1485C99.7039 25.6824 99.2758 26.1168 98.7495 26.1168C98.2233 26.1168 97.7821 25.6824 97.7821 25.1485Z" fill="white"/>
<path d="M101.799 30.4974C101.799 28.3453 103.394 26.684 105.558 26.684C106.953 26.684 108.163 27.4367 108.748 28.5476L107.166 29.486C106.881 28.8924 106.267 28.5177 105.541 28.5177C104.443 28.5177 103.632 29.3401 103.632 30.4974C103.632 31.6381 104.443 32.4638 105.541 32.4638C106.283 32.4638 106.894 32.1023 107.179 31.5087L108.774 32.4339C108.163 33.5614 106.95 34.3108 105.554 34.3108C103.394 34.3108 101.799 32.6495 101.799 30.4974Z" fill="white"/>
<path d="M115.559 28.6769H113.337V34.1118H111.5V28.6769H109.248V26.8862H115.559V28.6769Z" fill="white"/>
<path d="M115.746 30.4974C115.746 28.3453 117.413 26.684 119.505 26.684C121.6 26.684 123.28 28.3453 123.28 30.4974C123.28 32.6495 121.6 34.3108 119.505 34.3108C117.41 34.3108 115.746 32.6495 115.746 30.4974ZM121.443 30.4974C121.443 29.3268 120.603 28.5044 119.505 28.5044C118.423 28.5044 117.583 29.3268 117.583 30.4974C117.583 31.6679 118.423 32.4903 119.505 32.4903C120.603 32.4903 121.443 31.6679 121.443 30.4974Z" fill="white"/>
<path d="M128.862 34.1085L126.27 30.829V34.1085H124.434V26.8829H126.27V30.063L128.722 26.8829H130.915L128.052 30.451L131 34.1085H128.862Z" fill="white"/>
<path d="M26.7524 0.0430908H6.81475C3.06582 0.0430908 0 3.15351 0 6.95365V27.1813C0 30.9814 3.06582 34.0918 6.81148 34.0918H26.7491C30.4948 34.0918 33.5606 30.9814 33.5606 27.1813V6.95365C33.5638 3.15351 30.498 0.0430908 26.7524 0.0430908Z" fill="white"/>
<path d="M16.9451 11.9044L11.8594 17.0707L16.9451 22.2371C19.756 25.0888 24.3089 25.0888 27.1166 22.2371C29.9274 19.3853 29.9274 14.7595 27.1166 11.9077C24.3089 9.05264 19.756 9.05264 16.9451 11.9044Z" fill="#054146"/>
<path d="M7.7371 17.0708L2.65138 11.9045C2.27877 11.5265 1.87348 11.2015 1.44531 10.9263V23.2121C1.87348 22.9368 2.27877 22.6152 2.65138 22.2338L7.7371 17.0708Z" fill="#054146"/>
<path d="M14.8822 24.3262L9.79647 19.1632L4.71075 24.3262C3.00788 26.0539 2.35092 28.4513 2.71045 30.6896C3.69752 31.8735 5.16833 32.6295 6.81237 32.6295H16.2942C17.5656 29.917 17.0982 26.5712 14.8822 24.3262Z" fill="#054146"/>
<path d="M4.71037 9.81197L9.7961 14.9783L14.8818 9.81197C17.0946 7.56703 17.5587 4.21786 16.2873 1.50537H6.81199C5.16796 1.50537 3.69388 2.26142 2.70681 3.44523C2.35054 5.68686 3.01077 8.08764 4.71037 9.81197Z" fill="#054146"/>
</g>
<defs>
<clipPath id="clip0">
<rect width="131" height="37" fill="white"/>
</clipPath>
</defs>
</svg>
