<svg width="108" height="92" viewBox="0 0 108 92" fill="none" xmlns="http://www.w3.org/2000/svg">
<path fill-rule="evenodd" clip-rule="evenodd" d="M106.569 21.6928C106.569 22.4393 105.964 23.044 105.217 23.044C104.471 23.044 103.866 22.4393 103.863 21.6928V3.7023H72.3812V79.8294H103.863V30.6987C103.863 29.9522 104.468 29.3475 105.214 29.3475C105.961 29.3475 106.565 29.9522 106.565 30.6987V89.5002C106.565 90.2467 105.961 90.8514 105.214 90.8514H71.6347C71.4523 90.9426 71.2496 91 71.03 91C70.8105 91 70.6078 90.9426 70.4254 90.8514H2.42208C1.67557 90.8514 1.07094 90.2467 1.07094 89.5002V81.5994C1.0304 81.4643 1 81.3292 1 81.1805C1 81.0319 1.02702 80.8934 1.07094 80.7617V2.35115C1.07094 1.60464 1.67557 1 2.42208 1H105.217C105.964 1 106.569 1.60464 106.569 2.35115V21.6928ZM35.3361 82.5283H3.77323V88.1491H35.3361V82.5283ZM69.6823 82.5283H38.0417V88.1491H69.6823V82.5283ZM103.866 88.1491V82.5283H72.3846V88.1491H103.866ZM38.0417 79.826H69.6789V3.7023H38.0384V60.6633C38.0384 61.4099 37.4337 62.0145 36.6872 62.0145C35.9407 62.0145 35.3361 61.4099 35.3361 60.6633V3.7023H3.77323V79.826H35.3394V68.9763C35.3394 68.2298 35.9441 67.6251 36.6906 67.6251C37.4371 67.6251 38.0417 68.2298 38.0417 68.9763V79.826ZM27.6816 33.5559C27.6816 32.8094 28.2863 32.2048 29.0328 32.2048C29.7793 32.2048 30.3839 32.8094 30.3839 33.5559V47.5133C30.3839 48.2598 29.7793 48.8644 29.0328 48.8644C28.2863 48.8644 27.6816 48.2598 27.6816 47.5133V33.5559ZM44.5699 48.8644C45.3164 48.8644 45.9211 48.2598 45.9211 47.5133V33.5559C45.9211 32.8094 45.3164 32.2048 44.5699 32.2048C43.8234 32.2048 43.2188 32.8094 43.2188 33.5559V47.5133C43.2188 48.2598 43.8234 48.8644 44.5699 48.8644ZM77.6738 47.5133V33.5559C77.6738 32.8094 78.2785 32.2048 79.025 32.2048C79.7715 32.2048 80.3761 32.8094 80.3761 33.5559V47.5133C80.3761 48.2598 79.7715 48.8644 79.025 48.8644C78.2785 48.8644 77.6738 48.2598 77.6738 47.5133Z" fill="#7DB945"/>
<path d="M103.863 21.6928H103.363L103.363 21.6951L103.863 21.6928ZM103.863 3.7023H104.363V3.2023H103.863V3.7023ZM72.3812 3.7023V3.2023H71.8812V3.7023H72.3812ZM72.3812 79.8294H71.8812V80.3294H72.3812V79.8294ZM103.863 79.8294V80.3294H104.363V79.8294H103.863ZM71.6347 90.8514V90.3514H71.5166L71.4111 90.4042L71.6347 90.8514ZM70.4254 90.8514L70.649 90.4042L70.5434 90.3514H70.4254V90.8514ZM1.07094 81.5994H1.57094V81.526L1.54985 81.4557L1.07094 81.5994ZM1.07094 80.7617L1.54528 80.9198L1.57094 80.8428V80.7617H1.07094ZM3.77323 82.5283V82.0283H3.27323V82.5283H3.77323ZM35.3361 82.5283H35.8361V82.0283H35.3361V82.5283ZM3.77323 88.1491H3.27323V88.6491H3.77323V88.1491ZM35.3361 88.1491V88.6491H35.8361V88.1491H35.3361ZM38.0417 82.5283V82.0283H37.5417V82.5283H38.0417ZM69.6823 82.5283H70.1823V82.0283H69.6823V82.5283ZM38.0417 88.1491H37.5417V88.6491H38.0417V88.1491ZM69.6823 88.1491V88.6491H70.1823V88.1491H69.6823ZM103.866 82.5283H104.366V82.0283H103.866V82.5283ZM103.866 88.1491V88.6491H104.366V88.1491H103.866ZM72.3846 82.5283V82.0283H71.8846V82.5283H72.3846ZM72.3846 88.1491H71.8846V88.6491H72.3846V88.1491ZM69.6789 79.826V80.326H70.1789V79.826H69.6789ZM38.0417 79.826H37.5417V80.326H38.0417V79.826ZM69.6789 3.7023H70.1789V3.2023H69.6789V3.7023ZM38.0384 3.7023V3.2023H37.5384V3.7023H38.0384ZM35.3361 3.7023H35.8361V3.2023H35.3361V3.7023ZM3.77323 3.7023V3.2023H3.27323V3.7023H3.77323ZM3.77323 79.826H3.27323V80.326H3.77323V79.826ZM35.3394 79.826V80.326H35.8394V79.826H35.3394ZM105.217 23.544C106.24 23.544 107.069 22.7155 107.069 21.6928H106.069C106.069 22.1632 105.688 22.544 105.217 22.544V23.544ZM103.363 21.6951C103.368 22.7155 104.194 23.544 105.217 23.544V22.544C104.748 22.544 104.365 22.1631 104.363 21.6906L103.363 21.6951ZM103.363 3.7023V21.6928H104.363V3.7023H103.363ZM72.3812 4.2023H103.863V3.2023H72.3812V4.2023ZM72.8812 79.8294V3.7023H71.8812V79.8294H72.8812ZM103.863 79.3294H72.3812V80.3294H103.863V79.3294ZM103.363 30.6987V79.8294H104.363V30.6987H103.363ZM105.214 28.8475C104.191 28.8475 103.363 29.676 103.363 30.6987H104.363C104.363 30.2283 104.744 29.8475 105.214 29.8475V28.8475ZM107.065 30.6987C107.065 29.676 106.237 28.8475 105.214 28.8475V29.8475C105.684 29.8475 106.065 30.2283 106.065 30.6987H107.065ZM107.065 89.5002V30.6987H106.065V89.5002H107.065ZM105.214 91.3514C106.237 91.3514 107.065 90.5229 107.065 89.5002H106.065C106.065 89.9706 105.684 90.3514 105.214 90.3514V91.3514ZM71.6347 91.3514H105.214V90.3514H71.6347V91.3514ZM71.03 91.5C71.3391 91.5 71.6179 91.4188 71.8583 91.2986L71.4111 90.4042C71.2866 90.4664 71.1601 90.5 71.03 90.5V91.5ZM70.2018 91.2986C70.4421 91.4188 70.7209 91.5 71.03 91.5V90.5C70.9 90.5 70.7735 90.4664 70.649 90.4042L70.2018 91.2986ZM2.42208 91.3514H70.4254V90.3514H2.42208V91.3514ZM0.570935 89.5002C0.570935 90.5229 1.39943 91.3514 2.42208 91.3514V90.3514C1.95171 90.3514 1.57094 89.9706 1.57094 89.5002H0.570935ZM0.570935 81.5994V89.5002H1.57094V81.5994H0.570935ZM0.5 81.1805C0.5 81.3987 0.545135 81.5868 0.592022 81.7431L1.54985 81.4557C1.51567 81.3418 1.5 81.2596 1.5 81.1805H0.5ZM0.596594 80.6036C0.538599 80.7775 0.5 80.9697 0.5 81.1805H1.5C1.5 81.0941 1.51545 81.0093 1.54528 80.9198L0.596594 80.6036ZM0.570935 2.35115V80.7617H1.57094V2.35115H0.570935ZM2.42208 0.5C1.39943 0.5 0.570935 1.3285 0.570935 2.35115H1.57094C1.57094 1.88078 1.95172 1.5 2.42208 1.5V0.5ZM105.217 0.5H2.42208V1.5H105.217V0.5ZM107.069 2.35115C107.069 1.3285 106.24 0.5 105.217 0.5V1.5C105.688 1.5 106.069 1.88078 106.069 2.35115H107.069ZM107.069 21.6928V2.35115H106.069V21.6928H107.069ZM3.77323 83.0283H35.3361V82.0283H3.77323V83.0283ZM4.27323 88.1491V82.5283H3.27323V88.1491H4.27323ZM35.3361 87.6491H3.77323V88.6491H35.3361V87.6491ZM34.8361 82.5283V88.1491H35.8361V82.5283H34.8361ZM38.0417 83.0283H69.6823V82.0283H38.0417V83.0283ZM38.5417 88.1491V82.5283H37.5417V88.1491H38.5417ZM69.6823 87.6491H38.0417V88.6491H69.6823V87.6491ZM69.1823 82.5283V88.1491H70.1823V82.5283H69.1823ZM103.366 82.5283V88.1491H104.366V82.5283H103.366ZM72.3846 83.0283H103.866V82.0283H72.3846V83.0283ZM72.8846 88.1491V82.5283H71.8846V88.1491H72.8846ZM103.866 87.6491H72.3846V88.6491H103.866V87.6491ZM69.6789 79.326H38.0417V80.326H69.6789V79.326ZM69.1789 3.7023V79.826H70.1789V3.7023H69.1789ZM38.0384 4.2023H69.6789V3.2023H38.0384V4.2023ZM38.5384 60.6633V3.7023H37.5384V60.6633H38.5384ZM36.6872 62.5145C37.7099 62.5145 38.5384 61.686 38.5384 60.6633H37.5384C37.5384 61.1337 37.1576 61.5145 36.6872 61.5145V62.5145ZM34.8361 60.6633C34.8361 61.686 35.6646 62.5145 36.6872 62.5145V61.5145C36.2168 61.5145 35.8361 61.1337 35.8361 60.6633H34.8361ZM34.8361 3.7023V60.6633H35.8361V3.7023H34.8361ZM3.77323 4.2023H35.3361V3.2023H3.77323V4.2023ZM4.27323 79.826V3.7023H3.27323V79.826H4.27323ZM35.3394 79.326H3.77323V80.326H35.3394V79.326ZM34.8394 68.9763V79.826H35.8394V68.9763H34.8394ZM36.6906 67.1251C35.6679 67.1251 34.8394 67.9536 34.8394 68.9763H35.8394C35.8394 68.5059 36.2202 68.1251 36.6906 68.1251V67.1251ZM38.5417 68.9763C38.5417 67.9536 37.7132 67.1251 36.6906 67.1251V68.1251C37.161 68.1251 37.5417 68.5059 37.5417 68.9763H38.5417ZM38.5417 79.826V68.9763H37.5417V79.826H38.5417ZM29.0328 31.7048C28.0101 31.7048 27.1816 32.5333 27.1816 33.5559H28.1816C28.1816 33.0856 28.5624 32.7048 29.0328 32.7048V31.7048ZM30.8839 33.5559C30.8839 32.5333 30.0554 31.7048 29.0328 31.7048V32.7048C29.5032 32.7048 29.8839 33.0856 29.8839 33.5559H30.8839ZM30.8839 47.5133V33.5559H29.8839V47.5133H30.8839ZM29.0328 49.3644C30.0554 49.3644 30.8839 48.5359 30.8839 47.5133H29.8839C29.8839 47.9837 29.5032 48.3644 29.0328 48.3644V49.3644ZM27.1816 47.5133C27.1816 48.5359 28.0101 49.3644 29.0328 49.3644V48.3644C28.5624 48.3644 28.1816 47.9837 28.1816 47.5133H27.1816ZM27.1816 33.5559V47.5133H28.1816V33.5559H27.1816ZM45.4211 47.5133C45.4211 47.9837 45.0403 48.3644 44.5699 48.3644V49.3644C45.5926 49.3644 46.4211 48.5359 46.4211 47.5133H45.4211ZM45.4211 33.5559V47.5133H46.4211V33.5559H45.4211ZM44.5699 32.7048C45.0403 32.7048 45.4211 33.0856 45.4211 33.5559H46.4211C46.4211 32.5333 45.5926 31.7048 44.5699 31.7048V32.7048ZM43.7188 33.5559C43.7188 33.0856 44.0995 32.7048 44.5699 32.7048V31.7048C43.5472 31.7048 42.7188 32.5333 42.7188 33.5559H43.7188ZM43.7188 47.5133V33.5559H42.7188V47.5133H43.7188ZM44.5699 48.3644C44.0995 48.3644 43.7188 47.9837 43.7188 47.5133H42.7188C42.7188 48.5359 43.5472 49.3644 44.5699 49.3644V48.3644ZM77.1738 33.5559V47.5133H78.1738V33.5559H77.1738ZM79.025 31.7048C78.0023 31.7048 77.1738 32.5333 77.1738 33.5559H78.1738C78.1738 33.0856 78.5546 32.7048 79.025 32.7048V31.7048ZM80.8761 33.5559C80.8761 32.5333 80.0476 31.7048 79.025 31.7048V32.7048C79.4953 32.7048 79.8761 33.0856 79.8761 33.5559H80.8761ZM80.8761 47.5133V33.5559H79.8761V47.5133H80.8761ZM79.025 49.3644C80.0476 49.3644 80.8761 48.5359 80.8761 47.5133H79.8761C79.8761 47.9837 79.4953 48.3644 79.025 48.3644V49.3644ZM77.1738 47.5133C77.1738 48.5359 78.0023 49.3644 79.025 49.3644V48.3644C78.5546 48.3644 78.1738 47.9837 78.1738 47.5133H77.1738Z" fill="#7DB945"/>
</svg>
