<svg width="111" height="96" viewBox="0 0 111 96" fill="none" xmlns="http://www.w3.org/2000/svg">
<path d="M17.9442 85.1106C17.0426 85.1106 16.239 84.4721 16.0668 83.5537L10.3583 53.3779C10.1622 52.34 10.8438 51.3379 11.8817 51.1418C12.9196 50.9457 13.9217 51.6273 14.1178 52.6652L19.4699 80.959L79.6256 69.5802L68.8686 12.7153L8.713 24.0964L12.4605 43.9028C12.6566 44.9407 11.975 45.9427 10.9371 46.1388C9.89918 46.3373 8.89714 45.6533 8.70104 44.6154L4.59724 22.927C4.50397 22.4295 4.61158 21.913 4.89617 21.4945C5.18076 21.076 5.62319 20.7866 6.12062 20.6933L70.0357 8.60192C70.5355 8.50626 71.0497 8.61388 71.4682 8.90086C71.8867 9.18784 72.1761 9.62787 72.2694 10.1253L83.739 70.7497C83.9351 71.7876 83.2535 72.7896 82.2156 72.9857L18.3029 85.0771C18.1809 85.0986 18.0613 85.1106 17.9442 85.1106Z" fill="#7DB945"/>
<path d="M6.71241 24.4408C6.07388 24.4408 5.46644 24.1203 5.11011 23.5727L0.310376 16.2045C-0.0387825 15.6688 -0.0961784 14.9968 0.152537 14.4085C0.401252 13.8202 0.929773 13.3969 1.55634 13.2797L42.4629 5.5408C43.5032 5.34231 44.5028 6.02627 44.6989 7.06418C44.895 8.10209 44.2134 9.10413 43.1755 9.30023L5.07423 16.5082L7.61639 20.4087L68.9415 8.80758L69.635 4.29483L54.2147 7.21245C53.1768 7.40856 52.1747 6.72698 51.9786 5.68907C51.7825 4.65116 52.4641 3.64913 53.502 3.45302L71.5793 0.033188C72.1891 -0.0816037 72.8181 0.104933 73.2629 0.537793C73.7101 0.968262 73.9182 1.59005 73.8249 2.20466L72.5168 10.728C72.3948 11.5291 71.7778 12.1676 70.9814 12.3183L7.06874 24.4073C6.95156 24.4288 6.83198 24.4408 6.71241 24.4408Z" fill="#7DB945"/>
<path d="M16.6701 95.0879C16.1846 95.0879 15.7111 94.9038 15.3524 94.5618C14.9052 94.1385 14.6899 93.5263 14.7736 92.9164L16.1966 82.425C16.3066 81.6095 16.9284 80.9542 17.7367 80.8011L81.6518 68.7097C82.4912 68.5495 83.3354 68.968 83.718 69.7309L88.4053 79.0673C88.6756 79.603 88.6756 80.2343 88.4101 80.7748C88.1447 81.3129 87.6401 81.6955 87.0518 81.8056L17.0264 95.0544C16.9068 95.076 16.7897 95.0879 16.6701 95.0879ZM19.8029 84.3047L18.9229 90.8L83.8471 78.5173L80.9463 72.737L19.8029 84.3047Z" fill="#7DB945"/>
<path d="M99.8171 95.4394C99.5803 95.4394 99.3388 95.394 99.1044 95.3007L74.2736 85.3139C73.4891 84.9982 73.0037 84.2042 73.0826 83.3624C73.1615 82.5206 73.7809 81.8295 74.6108 81.6621C75.4693 81.4899 76.1796 81.3535 76.8444 81.2292C77.8823 81.0379 78.882 81.7242 79.0733 82.7645C79.0948 82.8865 79.1068 83.0109 79.1044 83.1304L98.7577 91.0343L106.432 71.9526L81.0917 61.76C80.1112 61.3654 79.6353 60.251 80.0299 59.2705C80.4245 58.29 81.5389 57.8141 82.5194 58.2087L109.634 69.1139C110.105 69.3028 110.481 69.6711 110.679 70.1374C110.878 70.6038 110.883 71.1299 110.694 71.601L101.592 94.2317C101.293 94.9875 100.575 95.4394 99.8171 95.4394Z" fill="#7DB945"/>
<path d="M109.086 72.4572C108.844 72.4572 108.603 72.4118 108.373 72.3185L79.1561 60.5691C78.1756 60.1745 77.6997 59.0601 78.0942 58.0795C78.4888 57.099 79.6009 56.6231 80.5838 57.0177L106.799 67.5618L106.132 62.0399L79.8042 51.4503C79.3713 52.0386 78.6156 52.3543 77.8551 52.1869C76.822 51.9621 76.1691 50.9409 76.3939 49.9102C76.4991 49.4223 76.6139 48.9393 76.7311 48.4538C76.8602 47.9133 77.219 47.4565 77.714 47.2006C78.209 46.9447 78.7902 46.9184 79.3043 47.1265L108.61 58.9142C109.258 59.1749 109.712 59.7679 109.796 60.4591L110.987 70.3168C111.068 70.9888 110.788 71.6537 110.253 72.065C109.911 72.3233 109.499 72.4572 109.086 72.4572Z" fill="#7DB945"/>
<path d="M42.2365 50.1374L38.9362 48.1955V42.2813L44.0636 45.2683V49.0779C44.0636 49.8791 44.6447 50.4602 45.4459 50.4602C46.247 50.4602 46.8282 49.8791 46.8282 49.0779V46.8371L49.0881 48.1644L49.1288 48.1859C49.4134 48.327 49.6095 48.327 49.784 48.327C50.2336 48.327 50.7263 48.0592 50.9822 47.6717L50.9989 47.6454C51.3959 46.983 51.1711 46.1412 50.4704 45.7203L48.2152 44.4456L50.1308 43.324C50.743 42.9557 50.975 42.2072 50.6928 41.5041L50.645 41.4084C50.2767 40.7962 49.5305 40.5642 48.8251 40.8464L45.4459 42.8242L40.3113 39.8324L45.4459 36.8407L48.7342 38.7754L48.7748 38.7969C49.0594 38.938 49.2555 38.938 49.4301 38.938C49.8797 38.938 50.3724 38.6702 50.6282 38.2851L50.645 38.2588C51.042 37.5964 50.8172 36.7546 50.1236 36.3385L48.1961 35.2097L50.4848 33.8656C51.097 33.4974 51.329 32.7488 51.0468 32.0457L50.9989 31.9501C50.6306 31.3378 49.8845 31.1059 49.179 31.3881L46.8282 32.7584V30.5176C46.8282 29.7164 46.247 29.1353 45.4459 29.1353C44.6447 29.1353 44.0636 29.7164 44.0636 30.5176V34.3272L38.9362 37.3142V31.5435L42.2365 29.6016C42.8487 29.2333 43.0807 28.4848 42.7985 27.7817L42.7507 27.686C42.3824 27.0738 41.6338 26.8418 40.9307 27.124L38.9362 28.3293V25.6843C38.9362 24.8832 38.3551 24.3021 37.5539 24.3021C36.7528 24.3021 36.1717 24.8832 36.1717 25.6843V28.3533L34.2728 27.2412C33.6104 26.8442 32.7686 27.069 32.3572 27.7554C31.9602 28.4178 32.185 29.2596 32.8762 29.6734L36.1717 31.6105V37.5964L31.0419 34.6094V30.7998C31.0419 29.9986 30.4608 29.4175 29.6596 29.4175C28.8585 29.4175 28.2773 29.9986 28.2773 30.7998V33.0406L26.0222 31.7181C25.6897 31.5172 25.3023 31.4694 24.934 31.5794C24.592 31.6822 24.2979 31.9142 24.1066 32.2323C23.9057 32.5647 23.8579 32.9521 23.9679 33.3204C24.0707 33.6624 24.3027 33.9565 24.6255 34.1502L26.9094 35.4919L24.9747 36.623C24.3625 36.9913 24.1305 37.7399 24.4127 38.443L24.439 38.5075L24.4773 38.5649C24.7594 38.9882 25.1827 39.2202 25.6754 39.2202C25.85 39.2202 26.0485 39.2202 26.3307 39.0791L29.6572 37.1229L34.7918 40.1146L29.6572 43.1064L26.3737 41.1764C26.0413 40.9756 25.6539 40.9277 25.2856 41.0377C24.9436 41.1406 24.6494 41.3725 24.4581 41.6906C24.2572 42.023 24.2094 42.4105 24.3194 42.7787C24.4222 43.1207 24.6542 43.4149 24.9795 43.6086L26.907 44.7374L24.6184 46.0814C24.0061 46.4497 23.7742 47.1982 24.0563 47.9013L24.0827 47.9659L24.1209 48.0233C24.4031 48.4466 24.8264 48.6786 25.3191 48.6786C25.4936 48.6786 25.6897 48.6786 25.9743 48.5375L28.2749 47.1887V49.4295C28.2749 50.2306 28.8561 50.8118 29.6572 50.8118C30.4584 50.8118 31.0395 50.2306 31.0395 49.4295V45.6198L36.1693 42.6329V48.6188L32.869 50.5607C32.2568 50.929 32.0248 51.6775 32.307 52.3806L32.3333 52.4452L32.3716 52.5026C32.6538 52.9259 33.0771 53.1578 33.5697 53.1578C33.7443 53.1578 33.9428 53.1578 34.225 53.0167L36.1693 51.8808V54.5497C36.1693 55.3508 36.7504 55.932 37.5516 55.932C38.3527 55.932 38.9338 55.3508 38.9338 54.5497V51.8808L40.8399 52.9952L40.8781 53.0167C41.1627 53.1578 41.3588 53.1578 41.5334 53.1578C41.983 53.1578 42.4756 52.89 42.7315 52.5026L42.7913 52.4117L42.82 52.3065C43.174 51.0174 42.698 50.4148 42.2365 50.1374Z" fill="#7DB945"/>
<path d="M56.244 64.7136L53.0465 62.8721L56.244 61.0307C56.8562 60.6624 57.0881 59.9138 56.806 59.2107L56.7581 59.1151C56.3898 58.5029 55.6413 58.2709 54.9382 58.5531L51.6642 60.4328V56.7595C51.6642 55.9583 51.0831 55.3772 50.282 55.3772C49.4808 55.3772 48.8997 55.9583 48.8997 56.7595V60.4328L45.7214 58.6009C45.389 58.4 45.0015 58.3522 44.6332 58.4622C44.2913 58.565 43.9971 58.797 43.8058 59.1151C43.6049 59.4475 43.5571 59.8349 43.6671 60.2032C43.7699 60.5452 44.0019 60.8393 44.3295 61.0354L47.515 62.8721L44.3176 64.7136C43.7053 65.0819 43.4734 65.8304 43.7556 66.5335L43.7819 66.5981L43.8201 66.6555C44.1023 67.0787 44.5256 67.3107 45.0183 67.3107C45.1929 67.3107 45.389 67.3107 45.6735 67.1696L48.8973 65.3114V68.9848C48.8973 69.7859 49.4784 70.3671 50.2796 70.3671C51.0807 70.3671 51.6618 69.7859 51.6618 68.9848V65.3114L54.8521 67.1505L54.888 67.1696C55.1726 67.3107 55.3687 67.3107 55.5432 67.3107C55.9928 67.3107 56.4855 67.0429 56.7414 66.6555L56.7581 66.6291C57.1551 65.9667 56.9279 65.1249 56.244 64.7136Z" fill="#7DB945"/>
<path d="M68.3299 48.7169L65.1325 46.8754L68.3299 45.034C68.9421 44.6657 69.1741 43.9171 68.8919 43.214L68.8441 43.1184C68.4758 42.5061 67.7272 42.2742 67.0241 42.5564L63.7502 44.4361V40.7627C63.7502 39.9616 63.169 39.3805 62.3679 39.3805C61.5667 39.3805 60.9856 39.9616 60.9856 40.7627V44.4361L57.8073 42.6042C57.1449 42.2072 56.3031 42.432 55.8917 43.1184C55.6908 43.4508 55.643 43.8382 55.753 44.2065C55.8559 44.5485 56.0878 44.8426 56.4155 45.0387L59.6009 46.8754L56.4035 48.7169C55.7913 49.0851 55.5593 49.8337 55.8415 50.5368L55.8678 50.6014L55.9061 50.6588C56.1883 51.082 56.6116 51.314 57.1042 51.314C57.2788 51.314 57.4749 51.314 57.7595 51.1729L60.9856 49.3147V52.9881C60.9856 53.7892 61.5667 54.3703 62.3679 54.3703C63.169 54.3703 63.7502 53.7892 63.7502 52.9881V49.3147L66.9404 51.1538L66.9763 51.1729C67.2609 51.314 67.457 51.314 67.6316 51.314C68.0812 51.314 68.5738 51.0462 68.8297 50.6588L68.868 50.6014L68.8943 50.5368C69.1741 49.8313 68.9421 49.0828 68.3299 48.7169Z" fill="#7DB945"/>
<path d="M79 39.5L83.5 68L90 79" stroke="white" stroke-width="2"/>
</svg>
