<svg width="141" height="42" viewBox="0 0 141 42" fill="none" xmlns="http://www.w3.org/2000/svg">
<path d="M27.3129 2.05253C25.281 2.05253 23.6287 3.70479 23.6287 5.73674V22.4309L22.5268 20.2269C21.8952 18.9909 20.8405 17.7316 19.665 17.4145C18.6728 17.141 17.7641 17.4942 17.05 17.9079C16.1447 18.4395 15.553 19.1971 15.323 19.9638C15.06 21.0384 15.2809 22.1206 15.7671 23.3026C18.1727 29.2089 21.8526 36.2271 25.8656 40.819C25.9635 40.9316 26.1111 40.9993 26.2603 41H40.4705C40.5834 40.9963 40.6949 40.9554 40.7831 40.8849C42.165 39.8611 43.3596 38.0166 44.352 35.7862C45.3445 33.5558 46.1422 30.9518 46.5066 28.4178C46.885 25.7865 46.9253 23.4328 46.3751 21.4934C45.8248 19.554 44.5934 18.0706 42.6415 17.8421C41.9597 17.8363 41.3665 17.8841 40.8324 18.1875C40.651 17.3819 40.2823 16.7137 39.7633 16.3454C39.0906 15.868 38.3456 15.7282 37.8226 15.7368C37.0954 15.749 36.5091 16.1364 35.997 16.6743C35.7838 16.0936 35.4878 15.6083 35.0759 15.3092C34.414 14.8285 33.6606 14.6842 33.1023 14.6842C32.3624 14.6842 31.6171 14.9638 30.9971 15.4243V5.73678C30.9513 3.34549 29.0239 2.03893 27.3129 2.05253ZM27.3129 3.10517C28.7798 3.10517 29.9445 4.26974 29.9445 5.73674V16.7894C29.9497 17.0252 30.1304 17.2463 30.361 17.2955C30.5917 17.3446 30.8479 17.217 30.9477 17.0033C31.2926 16.2862 32.3142 15.7368 33.1023 15.7368C33.4587 15.7368 34.0258 15.8392 34.451 16.148C34.8761 16.4568 35.2075 16.9325 35.2075 17.8421C35.2022 18.0806 35.3835 18.3094 35.616 18.3628C35.8486 18.4161 36.1099 18.2885 36.2108 18.0723C36.6879 17.118 37.1363 16.8015 37.8555 16.7894C38.127 16.7847 38.7104 16.8853 39.1548 17.2006C39.5991 17.5159 39.9442 17.9952 39.9442 18.8947C39.9495 19.3019 40.5366 19.5529 40.8324 19.273C40.9344 19.1783 41.2149 19.0456 41.556 18.9769C41.8972 18.9083 42.2871 18.8947 42.5757 18.8947C44.0339 19.0941 44.8799 20.0972 45.3553 21.773C45.8385 23.476 45.8457 25.8208 45.4705 28.2532C45.0952 30.6857 44.348 33.2236 43.3981 35.3585C42.4725 37.4387 41.3299 39.0972 40.2403 39.9473H26.5234C22.7031 35.5113 19.0996 28.667 16.7539 22.9079C16.255 21.6237 16.1697 20.8028 16.3263 20.2434C16.5919 19.5091 17.0904 19.0826 17.6092 18.796C18.1996 18.4593 18.7811 18.2677 19.3854 18.4342C20.6171 19.0323 21.0664 19.7816 21.5893 20.7204L23.6781 24.9144C23.779 25.1306 24.0403 25.2582 24.2728 25.2049C24.5053 25.1515 24.6848 24.9227 24.6814 24.6842V5.73674C24.6814 4.26974 25.8459 3.10517 27.3129 3.10517Z" fill="white" stroke="white" stroke-width="0.5"/>
<path d="M6.26237 0.999942C6.07848 0.999731 5.95493 1.07455 5.88405 1.14797L1.14692 5.88481C0.94276 6.09318 0.956903 6.43944 1.15501 6.63323C1.35313 6.82707 1.70978 6.82308 1.90353 6.62481L5.73602 2.79258L5.73602 14.1577C5.73602 14.4484 5.97167 14.684 6.26237 14.684C6.55307 14.684 6.78872 14.4484 6.78872 14.1577L6.78872 2.79258L10.6212 6.62481C10.815 6.82297 11.1716 6.82696 11.3697 6.63323C11.5678 6.43944 11.5861 6.10139 11.3778 5.88481L6.64069 1.14797C6.51604 1.01891 6.43544 1.00605 6.26237 0.999942Z" fill="white" stroke="white" stroke-width="0.5"/>
<path d="M6.26237 25.2104C6.07848 25.2106 5.95493 25.1358 5.88405 25.0624L1.14692 20.3255C0.94276 20.1171 0.956903 19.7709 1.15501 19.5771C1.35313 19.3833 1.70978 19.3873 1.90353 19.5855L5.73602 23.4178L5.73602 12.0526C5.73602 11.7619 5.97167 11.5263 6.26237 11.5263C6.55307 11.5263 6.78872 11.7619 6.78872 12.0526L6.78872 23.4178L10.6212 19.5855C10.815 19.3874 11.1716 19.3834 11.3697 19.5771C11.5678 19.7709 11.5861 20.1089 11.3778 20.3255L6.64069 25.0624C6.51604 25.1914 6.43544 25.2043 6.26237 25.2104Z" fill="white" stroke="white" stroke-width="0.5"/>
<path d="M58 21.304C58 22.52 58.2987 23.5867 58.896 24.504C59.504 25.4213 60.368 25.88 61.488 25.88C61.9893 25.88 62.448 25.7947 62.864 25.624C63.2907 25.4533 63.6427 25.2827 63.92 25.112C64.1973 24.9413 64.4053 24.856 64.544 24.856C64.7147 24.856 64.848 24.9147 64.944 25.032C65.0507 25.1493 65.104 25.3093 65.104 25.512C65.104 25.8853 64.7413 26.2427 64.016 26.584C63.2907 26.9253 62.448 27.096 61.488 27.096C60.432 27.096 59.5147 26.8187 58.736 26.264C57.968 25.6987 57.4027 24.984 57.04 24.12C56.6773 23.256 56.496 22.3173 56.496 21.304C56.496 20.5467 56.6027 19.8267 56.816 19.144C57.04 18.4613 57.3547 17.848 57.76 17.304C58.1653 16.76 58.6987 16.328 59.36 16.008C60.0213 15.6773 60.7573 15.512 61.568 15.512C62.4853 15.512 63.264 15.704 63.904 16.088C64.544 16.472 64.864 16.8347 64.864 17.176C64.864 17.368 64.8107 17.528 64.704 17.656C64.5973 17.784 64.4587 17.848 64.288 17.848C64.128 17.848 63.9413 17.7573 63.728 17.576C63.5147 17.384 63.2267 17.1973 62.864 17.016C62.512 16.824 62.08 16.728 61.568 16.728C60.96 16.728 60.4213 16.8613 59.952 17.128C59.4827 17.3947 59.1093 17.752 58.832 18.2C58.5547 18.648 58.3467 19.1387 58.208 19.672C58.0693 20.1947 58 20.7387 58 21.304ZM73.1164 24.52C73.1164 25.2133 72.8657 25.8 72.3644 26.28C71.8737 26.76 71.1964 27 70.3324 27H67.1164C66.903 27 66.7324 26.936 66.6044 26.808C66.4764 26.6693 66.4124 26.4827 66.4124 26.248V19.24C66.4124 19.0053 66.4764 18.824 66.6044 18.696C66.7324 18.5573 66.903 18.488 67.1164 18.488H70.1564C70.8604 18.488 71.4204 18.696 71.8364 19.112C72.2524 19.528 72.4604 19.9973 72.4604 20.52C72.4604 20.9787 72.3484 21.3787 72.1244 21.72C71.911 22.0507 71.6284 22.2747 71.2764 22.392V22.408C71.799 22.4613 72.2364 22.6907 72.5884 23.096C72.9404 23.4907 73.1164 23.9653 73.1164 24.52ZM71.0524 20.76C71.0524 20.44 70.9564 20.1787 70.7644 19.976C70.5724 19.7733 70.2897 19.672 69.9164 19.672H67.8204V21.912H69.9004C70.2524 21.912 70.5297 21.8053 70.7324 21.592C70.9457 21.368 71.0524 21.0907 71.0524 20.76ZM71.7084 24.44C71.7084 24.0453 71.575 23.72 71.3084 23.464C71.0417 23.1973 70.6844 23.064 70.2364 23.064H67.8204V25.816H70.1884C70.6364 25.816 70.999 25.6933 71.2764 25.448C71.5644 25.192 71.7084 24.856 71.7084 24.44ZM80.9686 26.344C80.9686 26.5787 80.9046 26.7653 80.7766 26.904C80.6486 27.032 80.478 27.096 80.2646 27.096C80.0513 27.096 79.8806 27.032 79.7526 26.904C79.6246 26.7653 79.5606 26.5787 79.5606 26.344V26.008L79.5286 25.976C78.942 26.7227 78.158 27.096 77.1766 27.096C76.3446 27.096 75.646 26.888 75.0806 26.472C74.5153 26.0453 74.2326 25.4213 74.2326 24.6C74.2326 24.1733 74.3073 23.8 74.4566 23.48C74.606 23.1493 74.8193 22.8827 75.0966 22.68C75.374 22.4773 75.6673 22.312 75.9766 22.184C76.2966 22.0453 76.67 21.9493 77.0966 21.896C77.5233 21.832 77.902 21.7893 78.2326 21.768C78.574 21.7467 78.958 21.736 79.3846 21.736H79.5766V20.68C79.5766 20.328 79.4433 20.0613 79.1766 19.88C78.91 19.6987 78.542 19.608 78.0726 19.608C77.6886 19.608 77.358 19.6827 77.0806 19.832C76.8033 19.9707 76.574 20.1147 76.3926 20.264C76.2113 20.4027 76.0406 20.472 75.8806 20.472C75.678 20.472 75.518 20.4187 75.4006 20.312C75.294 20.1947 75.2406 20.056 75.2406 19.896C75.2406 19.48 75.55 19.128 76.1686 18.84C76.798 18.5413 77.4326 18.392 78.0726 18.392C79.0006 18.392 79.7153 18.6 80.2166 19.016C80.718 19.4213 80.9686 20.0133 80.9686 20.792V26.344ZM79.5766 23.624V22.824H79.2726C78.878 22.824 78.574 22.8293 78.3606 22.84C78.158 22.84 77.886 22.856 77.5446 22.888C77.2033 22.92 76.942 22.9733 76.7606 23.048C76.59 23.1227 76.4033 23.224 76.2006 23.352C75.998 23.48 75.854 23.6507 75.7686 23.864C75.6833 24.0667 75.6406 24.312 75.6406 24.6C75.6406 25.0373 75.8113 25.3627 76.1526 25.576C76.494 25.7787 76.9206 25.88 77.4326 25.88C78.062 25.88 78.574 25.6827 78.9686 25.288C79.374 24.8933 79.5766 24.3387 79.5766 23.624ZM89.5706 26.344C89.5706 26.5787 89.5066 26.7653 89.3786 26.904C89.2506 27.032 89.08 27.096 88.8666 27.096C88.6533 27.096 88.4826 27.032 88.3546 26.904C88.2266 26.7653 88.1626 26.5787 88.1626 26.344V21.016H88.1306L84.2266 26.616C84.216 26.6267 84.184 26.6693 84.1306 26.744C84.088 26.808 84.0613 26.8507 84.0506 26.872C84.04 26.8827 84.0133 26.9093 83.9706 26.952C83.928 26.9947 83.8853 27.0213 83.8426 27.032C83.8106 27.0427 83.768 27.0533 83.7146 27.064C83.6613 27.0853 83.5973 27.096 83.5226 27.096C83.3093 27.096 83.1386 27.032 83.0106 26.904C82.8826 26.7653 82.8186 26.5787 82.8186 26.344V19.144C82.8186 18.9093 82.8826 18.728 83.0106 18.6C83.1386 18.4613 83.3093 18.392 83.5226 18.392C83.736 18.392 83.9066 18.4613 84.0346 18.6C84.1626 18.728 84.2266 18.9093 84.2266 19.144V24.456H84.2586L88.1626 18.856C88.1733 18.8453 88.1893 18.8187 88.2106 18.776C88.2426 18.7333 88.264 18.7067 88.2746 18.696C88.2853 18.6853 88.3013 18.664 88.3226 18.632C88.3546 18.5893 88.376 18.5627 88.3866 18.552C88.3973 18.5413 88.4186 18.5253 88.4506 18.504C88.4826 18.4827 88.5093 18.4667 88.5306 18.456C88.552 18.4453 88.5786 18.4347 88.6106 18.424C88.6533 18.4133 88.696 18.408 88.7386 18.408C88.7813 18.3973 88.824 18.392 88.8666 18.392C89.08 18.392 89.2506 18.4613 89.3786 18.6C89.5066 18.728 89.5706 18.9093 89.5706 19.144V26.344ZM84.0826 16.088C84.0826 15.928 84.1253 15.7947 84.2106 15.688C84.3066 15.5707 84.4293 15.512 84.5786 15.512C84.7066 15.512 84.8453 15.5867 84.9946 15.736C85.1546 15.8853 85.336 16.04 85.5386 16.2C85.752 16.3493 85.9866 16.424 86.2426 16.424C86.4986 16.424 86.728 16.3493 86.9306 16.2C87.144 16.04 87.3253 15.8853 87.4746 15.736C87.6346 15.5867 87.7786 15.512 87.9066 15.512C88.056 15.512 88.1733 15.5707 88.2586 15.688C88.3546 15.7947 88.4026 15.928 88.4026 16.088C88.4026 16.5253 88.1626 16.8933 87.6826 17.192C87.2133 17.4907 86.7333 17.64 86.2426 17.64C85.752 17.64 85.2666 17.4907 84.7866 17.192C84.3173 16.8933 84.0826 16.5253 84.0826 16.088ZM98.18 26.344C98.18 26.5787 98.116 26.7653 97.988 26.904C97.86 27.032 97.6893 27.096 97.476 27.096C97.2627 27.096 97.092 27.032 96.964 26.904C96.836 26.7653 96.772 26.5787 96.772 26.344V19.704H92.836V26.344C92.836 26.5787 92.772 26.7653 92.644 26.904C92.516 27.032 92.3453 27.096 92.132 27.096C91.9187 27.096 91.748 27.032 91.62 26.904C91.492 26.7653 91.428 26.5787 91.428 26.344V19.24C91.428 19.0053 91.492 18.824 91.62 18.696C91.748 18.5573 91.9187 18.488 92.132 18.488H97.476C97.6893 18.488 97.86 18.5573 97.988 18.696C98.116 18.824 98.18 19.0053 98.18 19.24V26.344ZM110.741 24.52C110.741 25.2133 110.491 25.8 109.989 26.28C109.499 26.76 108.821 27 107.957 27H104.741C104.528 27 104.357 26.936 104.229 26.808C104.101 26.6693 104.037 26.4827 104.037 26.248V19.24C104.037 19.0053 104.101 18.824 104.229 18.696C104.357 18.5573 104.528 18.488 104.741 18.488H107.781C108.485 18.488 109.045 18.696 109.461 19.112C109.877 19.528 110.085 19.9973 110.085 20.52C110.085 20.9787 109.973 21.3787 109.749 21.72C109.536 22.0507 109.253 22.2747 108.901 22.392V22.408C109.424 22.4613 109.861 22.6907 110.213 23.096C110.565 23.4907 110.741 23.9653 110.741 24.52ZM108.677 20.76C108.677 20.44 108.581 20.1787 108.389 19.976C108.197 19.7733 107.915 19.672 107.541 19.672H105.445V21.912H107.525C107.877 21.912 108.155 21.8053 108.357 21.592C108.571 21.368 108.677 21.0907 108.677 20.76ZM109.333 24.44C109.333 24.0453 109.2 23.72 108.933 23.464C108.667 23.1973 108.309 23.064 107.861 23.064H105.445V25.816H107.813C108.261 25.816 108.624 25.6933 108.901 25.448C109.189 25.192 109.333 24.856 109.333 24.44ZM113.602 23.096V26.344C113.602 26.5787 113.538 26.7653 113.41 26.904C113.282 27.032 113.111 27.096 112.898 27.096C112.684 27.096 112.514 27.032 112.386 26.904C112.258 26.7653 112.194 26.5787 112.194 26.344V19.144C112.194 18.9093 112.258 18.728 112.386 18.6C112.514 18.4613 112.684 18.392 112.898 18.392C113.111 18.392 113.282 18.4613 113.41 18.6C113.538 18.728 113.602 18.9093 113.602 19.144V21.88H117.538V19.144C117.538 18.9093 117.602 18.728 117.73 18.6C117.858 18.4613 118.028 18.392 118.242 18.392C118.455 18.392 118.626 18.4613 118.754 18.6C118.882 18.728 118.946 18.9093 118.946 19.144V26.344C118.946 26.5787 118.882 26.7653 118.754 26.904C118.626 27.032 118.455 27.096 118.242 27.096C118.028 27.096 117.858 27.032 117.73 26.904C117.602 26.7653 117.538 26.5787 117.538 26.344V23.096H113.602ZM127.555 26.344C127.555 26.5787 127.491 26.7653 127.363 26.904C127.235 27.032 127.064 27.096 126.851 27.096C126.638 27.096 126.467 27.032 126.339 26.904C126.211 26.7653 126.147 26.5787 126.147 26.344V21.016H126.115L122.211 26.616C122.2 26.6267 122.168 26.6693 122.115 26.744C122.072 26.808 122.046 26.8507 122.035 26.872C122.024 26.8827 121.998 26.9093 121.955 26.952C121.912 26.9947 121.87 27.0213 121.827 27.032C121.795 27.0427 121.752 27.0533 121.699 27.064C121.646 27.0853 121.582 27.096 121.507 27.096C121.294 27.096 121.123 27.032 120.995 26.904C120.867 26.7653 120.803 26.5787 120.803 26.344V19.144C120.803 18.9093 120.867 18.728 120.995 18.6C121.123 18.4613 121.294 18.392 121.507 18.392C121.72 18.392 121.891 18.4613 122.019 18.6C122.147 18.728 122.211 18.9093 122.211 19.144V24.456H122.243L126.147 18.856C126.158 18.8453 126.174 18.8187 126.195 18.776C126.227 18.7333 126.248 18.7067 126.259 18.696C126.27 18.6853 126.286 18.664 126.307 18.632C126.339 18.5893 126.36 18.5627 126.371 18.552C126.382 18.5413 126.403 18.5253 126.435 18.504C126.467 18.4827 126.494 18.4667 126.515 18.456C126.536 18.4453 126.563 18.4347 126.595 18.424C126.638 18.4133 126.68 18.408 126.723 18.408C126.766 18.3973 126.808 18.392 126.851 18.392C127.064 18.392 127.235 18.4613 127.363 18.6C127.491 18.728 127.555 18.9093 127.555 19.144V26.344ZM135.124 24.392C135.124 25.2667 134.815 25.9387 134.196 26.408C133.578 26.8667 132.836 27.096 131.972 27.096C131.119 27.096 130.383 26.9253 129.764 26.584C129.146 26.232 128.836 25.864 128.836 25.48C128.836 25.288 128.89 25.1333 128.996 25.016C129.114 24.8987 129.252 24.84 129.412 24.84C129.572 24.84 129.764 24.9307 129.988 25.112C130.212 25.2827 130.495 25.4533 130.836 25.624C131.178 25.7947 131.572 25.88 132.02 25.88C132.543 25.88 132.959 25.7573 133.268 25.512C133.578 25.256 133.732 24.9093 133.732 24.472C133.732 23.5867 133.167 23.144 132.036 23.144C131.599 23.144 131.38 22.9413 131.38 22.536C131.38 22.2053 131.588 22.008 132.004 21.944C132.442 21.88 132.74 21.7733 132.9 21.624C133.199 21.3253 133.348 21.0053 133.348 20.664C133.348 20.3227 133.236 20.0613 133.012 19.88C132.788 19.6987 132.49 19.608 132.116 19.608C131.732 19.608 131.407 19.6827 131.14 19.832C130.874 19.9707 130.655 20.1147 130.484 20.264C130.314 20.4027 130.148 20.472 129.988 20.472C129.786 20.472 129.626 20.4187 129.508 20.312C129.402 20.1947 129.348 20.056 129.348 19.896C129.348 19.48 129.663 19.128 130.292 18.84C130.922 18.5413 131.556 18.392 132.196 18.392C132.986 18.392 133.615 18.6 134.084 19.016C134.554 19.432 134.788 19.9813 134.788 20.664C134.788 21.3147 134.468 21.8853 133.828 22.376C134.692 22.76 135.124 23.432 135.124 24.392Z" fill="white"/>
</svg>
