<svg width="103" height="90" viewBox="0 0 103 90" fill="none" xmlns="http://www.w3.org/2000/svg">
<path d="M40.6233 64.774C39.9658 64.774 39.3273 64.4344 38.9741 63.8231L36.6105 59.7315C36.0861 58.8213 36.3959 57.6585 37.306 57.1342C38.2161 56.6098 39.379 56.9196 39.9033 57.8297L42.267 61.9213C42.7913 62.8314 42.4816 63.9942 41.5715 64.5186C41.2753 64.6925 40.9466 64.774 40.6233 64.774Z" fill="#7DB945"/>
<path d="M55.1832 90C55.0175 90 54.8518 89.9783 54.6915 89.9348C54.2052 89.8044 53.7895 89.4865 53.5368 89.0491L42.8568 70.55C42.3325 69.6399 42.6422 68.477 43.5524 67.9527C44.4625 67.4283 45.6253 67.7381 46.1497 68.6482L55.8787 85.5009L97.7591 61.3208L71.7778 16.3134L68.9658 19.4812C68.6941 19.7882 68.3274 20.0002 67.9253 20.0817L61.8124 21.3314L57.6746 26.0017C57.4029 26.3087 57.0361 26.5206 56.634 26.6021L50.5211 27.8519L46.3806 32.5194C46.1089 32.8264 45.7421 33.0384 45.34 33.1199L39.2271 34.3696L35.0866 39.0372C34.8149 39.3442 34.4482 39.5561 34.0461 39.6376L29.8974 40.488L35.9941 51.0457C36.5184 51.9558 36.2087 53.1187 35.2985 53.643C34.3884 54.1674 33.2256 53.8576 32.7012 52.9475L25.2869 40.1049C24.9826 39.5751 24.95 38.9312 25.2 38.3743C25.4499 37.8173 25.9553 37.4125 26.553 37.2902L32.6659 36.0405L36.8064 31.3729C37.0781 31.0659 37.4449 30.854 37.847 30.7725L43.9599 29.5227L48.1004 24.8552C48.3721 24.5482 48.7388 24.3363 49.1409 24.2548L55.2539 23.005L59.3943 18.3374C59.666 18.0304 60.0328 17.8185 60.4349 17.737L66.5478 16.4873L70.6883 11.8197C71.0931 11.3633 71.6963 11.1269 72.3021 11.1894C72.9107 11.2519 73.4514 11.6024 73.7584 12.1294L102.014 61.0682C102.266 61.5056 102.334 62.0245 102.204 62.5108C102.073 62.9971 101.756 63.4128 101.318 63.6655L56.1423 89.7473C55.8434 89.913 55.5147 90 55.1832 90Z" fill="#7DB945"/>
<path d="M29.7562 34.2936C29.3487 34.2936 28.9412 34.1631 28.5934 33.8969L10.5181 19.9159C6.45916 16.778 5.28005 13.3004 5.00565 10.934C4.69049 8.22803 5.39144 5.58724 6.92646 3.68816C8.52669 1.71029 11.0126 0.39261 13.7458 0.0747378C16.0279 -0.191514 19.5707 0.126358 23.483 3.15294L46.0682 20.6223C46.8996 21.2662 47.0517 22.4589 46.4078 23.2903C45.7667 24.1216 44.5712 24.2738 43.7399 23.6299L21.1546 6.1605C16.0388 2.20475 11.6103 3.94626 9.8824 6.08171C8.99943 7.17388 8.58918 8.82302 8.78208 10.4939C8.97226 12.1349 9.8335 14.5773 12.8438 16.9057L30.919 30.8866C31.7504 31.5305 31.9025 32.7232 31.2586 33.5546C30.8864 34.0409 30.324 34.2936 29.7562 34.2936Z" fill="#7DB945"/>
<path d="M20.4383 16.096C20.0307 16.096 19.6232 15.9656 19.2754 15.6994C18.4441 15.0555 18.2919 13.8628 18.9358 13.0314C20.1557 11.4557 21.0251 9.68969 21.3212 8.18999C21.5603 6.98099 21.3538 6.31536 21.1582 6.16321C20.3269 5.51932 20.1747 4.32662 20.8186 3.49526C21.4625 2.6639 22.6552 2.51176 23.4866 3.15565C24.9999 4.32662 25.5568 6.37513 25.0542 8.92626C24.6412 11.0155 23.5382 13.3004 21.9461 15.3598C21.5685 15.8434 21.0061 16.096 20.4383 16.096Z" fill="#7DB945"/>
<path d="M30.7546 24.0754C30.3471 24.0754 29.9396 23.945 29.5918 23.6788C28.7605 23.0349 28.6083 21.8422 29.2522 21.0108C30.4721 19.4351 31.3415 17.6691 31.6376 16.1694C31.8767 14.9604 31.6702 14.2948 31.4746 14.1426C30.6433 13.4987 30.4911 12.306 31.135 11.4747C31.7789 10.6433 32.9716 10.4912 33.803 11.1351C35.3162 12.306 35.8732 14.3545 35.3706 16.9057C34.9576 18.9949 33.8546 21.2798 32.2625 23.3392C31.8849 23.8201 31.3225 24.0754 30.7546 24.0754Z" fill="#7DB945"/>
<path d="M54.0654 53.9038H1.9018C0.850376 53.9038 0 53.0535 0 52.002C0 50.9506 0.850376 50.1003 1.9018 50.1003H54.0654C55.1169 50.1003 55.9672 50.9506 55.9672 52.002C55.9672 53.0535 55.1169 53.9038 54.0654 53.9038Z" fill="#7DB945"/>
<path d="M45.3703 64.7713H19.2885C18.2371 64.7713 17.3867 63.9209 17.3867 62.8695C17.3867 61.818 18.2371 60.9677 19.2885 60.9677H45.3703C46.4218 60.9677 47.2721 61.818 47.2721 62.8695C47.2721 63.9209 46.4218 64.7713 45.3703 64.7713Z" fill="#7DB945"/>
<path d="M30.1578 77.8122H6.24946C5.19803 77.8122 4.34766 76.9618 4.34766 75.9104C4.34766 74.8589 5.19803 74.0086 6.24946 74.0086H30.1578C31.2092 74.0086 32.0596 74.8589 32.0596 75.9104C32.0596 76.9618 31.2092 77.8122 30.1578 77.8122Z" fill="#7DB945"/>
<path d="M60.5861 14.7811C60.0264 14.7811 59.4721 14.5366 59.0972 14.0638L53.1881 6.6441L43.7524 12.3087C42.8504 12.8494 41.6849 12.556 41.1442 11.6567C40.6036 10.7574 40.897 9.58917 41.7963 9.04851L52.6637 2.52806C53.4815 2.03631 54.5356 2.22921 55.1306 2.97362L62.0776 11.6974C62.7324 12.5179 62.5965 13.7161 61.7733 14.3708C61.4201 14.648 61.0017 14.7811 60.5861 14.7811Z" fill="#7DB945"/>
</svg>
