<svg width="80" height="90" viewBox="0 0 80 90" fill="none" xmlns="http://www.w3.org/2000/svg">
<path d="M78.0149 46.4591H49.8751C51.6826 45.7629 53.3857 44.6675 54.9188 43.182C58.5905 39.6237 61.1895 34.038 61.8721 28.2413C62.6001 22.0454 61.0557 16.6819 57.638 13.5228C55.4064 11.4613 52.4831 10.4158 48.9521 10.4158C48.9475 10.4158 48.943 10.4158 48.9384 10.4158C46.725 10.418 44.2848 10.8467 41.6722 11.6949C41.9012 9.34081 42.6814 8.28398 43.7813 7.43352C45.0264 6.47195 46.8747 5.80292 49.5372 4.89577C50.3196 4.64857 50.8412 3.81626 50.7255 3.00437C50.6076 2.19247 49.8728 1.54159 49.0473 1.52344C48.8319 1.52344 48.6255 1.55746 48.444 1.6255L48.0903 1.7457C45.7067 2.55533 43.4525 3.3196 41.6608 4.70527C41.2526 5.02051 40.8762 5.37429 40.5314 5.76437C40.3183 5.29038 40.0711 4.84134 39.7853 4.40818C38.3271 2.20607 35.8778 0.734224 32.4918 0.0289154C32.3852 0.00850453 32.2718 -0.000566968 32.1653 0.00170091C32.1199 -0.000566968 32.0723 -0.000566968 32.0269 0.00170091L31.9952 0.00396878C31.2808 0.072005 30.6594 0.604955 30.4848 1.29666C29.5504 4.92525 29.9042 7.99596 31.5371 10.4248C31.3171 10.4158 31.1016 10.4135 30.8862 10.4135C27.3528 10.4135 24.4318 11.459 22.2002 13.5205C18.7803 16.6796 17.2381 22.0432 17.9661 28.239C18.6465 34.0357 21.2454 39.6215 24.9194 43.1798C26.4547 44.6675 28.1602 45.7606 29.9677 46.4568H1.8143C0.811899 46.4568 0 47.2687 0 48.2711C0 49.2735 0.811899 50.0854 1.8143 50.0854H16.6099C16.1087 52.8885 16.0565 55.6961 16.0089 58.2112C15.9681 60.3634 15.9318 62.3954 15.6143 63.9988C15.2991 65.5931 14.9861 66.684 14.6527 67.8361C14.2717 69.1537 13.8794 70.519 13.4485 72.7029C12.979 75.0887 13.2988 76.9121 13.5573 78.3772C13.7252 79.3274 13.8567 80.0781 13.7524 80.7766C13.5619 82.0624 11.573 85.2601 10.2213 87.1198C9.63166 87.9294 9.81082 89.0656 10.6227 89.653C10.9448 89.8866 11.319 90 11.6886 90C12.2488 90 12.8021 89.7415 13.1582 89.2539C13.7887 88.3853 16.9569 83.9266 17.3447 81.3072C17.5329 80.0282 17.3311 78.8693 17.1338 77.7489C16.8979 76.3996 16.6734 75.125 17.0113 73.4037C17.4105 71.374 17.7824 70.0858 18.1407 68.843C18.4809 67.666 18.8324 66.4481 19.1771 64.6996C19.5559 62.7832 19.5944 60.5947 19.6398 58.2793C19.6897 55.61 19.7418 52.8545 20.2907 50.1761C20.6104 50.0764 21.3021 50.0151 22.1163 50.285C22.74 50.4914 23.8467 51.0357 24.2617 52.3737C24.8559 54.2878 24.8196 55.7982 24.7833 57.2587C24.7516 58.5083 24.7198 59.8033 25.1326 61.1277C25.5862 62.5837 26.3572 64.0873 27.4254 65.5954C28.4119 66.9856 30.4666 67.0128 32.0178 66.7929C34.7778 66.3982 41.7561 65.1781 42.0532 65.1282L42.3117 65.0829L42.5521 64.9649C42.5544 64.9627 42.5589 64.9627 42.5612 64.9604L53.8552 59.352L62.04 50.4075C62.4346 50.2056 62.8836 50.1444 63.3236 50.2396C63.827 50.3485 64.2602 50.6456 64.5391 51.0788C65.4282 52.4531 64.419 53.9159 63.9427 54.4828L57.6017 62.7946L50.3785 71.4171C48.1538 72.9479 35.8097 81.4705 34 83.2826C31.7616 85.521 31.6595 87.9 31.655 88.163L35.2836 88.2243V88.2628C35.2858 88.2129 35.3698 87.045 36.5672 85.8498C37.8032 84.6138 47.0811 78.0914 52.6419 74.27L52.846 74.1294L60.4139 65.0942L66.7526 56.7847C68.4898 54.696 68.9638 52.224 68.0974 50.0945H78.0149C79.0173 50.0945 79.8292 49.2826 79.8292 48.2802C79.8292 47.2778 79.0173 46.4591 78.0149 46.4591ZM33.4829 3.87069C35.0681 4.41498 36.1612 5.20194 36.896 6.30866C37.6898 7.5061 38.1048 9.17752 38.1955 11.5384C36.4152 10.6358 35.1747 9.6447 34.4127 8.52437C33.5441 7.24529 33.2425 5.75303 33.4829 3.87069ZM39.2002 42.9756L39.148 42.9961C34.7529 44.8217 30.7705 44.0506 27.312 40.701C24.239 37.7232 21.9666 32.7929 21.386 27.8376C20.7964 22.8301 21.9757 18.4282 24.5384 16.0605C26.135 14.5864 28.2554 13.838 30.8408 13.838C30.8726 13.838 30.9043 13.838 30.9383 13.838C33.2947 13.8539 36.0592 14.4934 39.1684 15.7385C39.7626 15.963 40.2253 15.8791 40.638 15.7521L40.6925 15.7339C47.2874 13.0919 52.1996 13.203 55.293 16.0605C57.8467 18.4191 59.0191 22.821 58.4295 27.8376C57.8467 32.8042 55.5811 37.7323 52.5194 40.701C49.0609 44.0529 45.074 44.8217 40.672 42.9893C40.1119 42.7216 39.656 42.8305 39.2002 42.9756ZM39.9146 46.3956C39.9735 46.4183 40.0325 46.4364 40.0892 46.4568H39.7354C39.7966 46.4364 39.8556 46.4183 39.9146 46.3956ZM31.4985 63.1983C30.8816 63.2867 30.4326 63.2708 30.199 63.2368C29.4529 62.1414 28.8995 61.0461 28.5888 60.0482C28.3552 59.293 28.3756 58.4357 28.4029 57.3472C28.4414 55.7574 28.4913 53.7798 27.7202 51.2965C27.5841 50.8588 27.4095 50.4574 27.2099 50.0877H46.9495C45.8405 51.97 44.4186 55.8935 44.024 57.0115L40.6902 61.6811C38.7874 62.0099 33.687 62.8876 31.4985 63.1983ZM51.6259 56.3992L47.3351 58.531L47.3623 58.4516C48.0767 56.4015 49.4759 52.7661 50.188 51.7455C51.2449 50.2601 53.1612 50.0877 54.5129 50.0877H57.4022L51.6259 56.3992Z" fill="#7DB945"/>
<path d="M32.9674 36.5962C31.3935 35.1583 29.1324 32.3756 27.9372 29.2687C26.64 25.8895 26.8487 23.1477 28.57 20.8934C28.8557 20.5305 28.9827 20.0792 28.926 19.6211C28.8716 19.163 28.6426 18.7548 28.2797 18.469C27.9917 18.2422 27.6447 18.1152 27.2773 18.1016C26.7103 18.0835 26.166 18.3398 25.8327 18.7911C23.4219 21.948 23.025 26.1095 24.7146 30.5092C25.9098 33.6207 28.1255 36.8502 30.6292 39.1384C30.9535 39.4446 31.3731 39.6124 31.8153 39.6124C31.8312 39.6124 31.8471 39.6124 31.8629 39.6124C32.3233 39.6011 32.7519 39.4083 33.0694 39.0749C33.3869 38.7416 33.5548 38.3016 33.5412 37.8412C33.5298 37.3808 33.3371 36.9522 33.0037 36.6347L32.9674 36.5962Z" fill="#7DB945"/>
</svg>
