<svg width="79" height="90" viewBox="0 0 79 90" fill="none" xmlns="http://www.w3.org/2000/svg">
<path d="M76.7825 87.6684H33.8809C32.8503 87.6684 32.0156 86.8337 32.0156 85.8031V74.6114C32.0156 73.5808 32.8503 72.7461 33.8809 72.7461H76.7825C77.813 72.7461 78.6478 73.5808 78.6478 74.6114V85.8031C78.6478 86.8337 77.813 87.6684 76.7825 87.6684ZM35.7462 83.9378H74.9172V76.4767H35.7462V83.9378Z" fill="#7DB945"/>
<path d="M65.5934 63.4197C64.8496 63.4197 64.1478 62.972 63.8587 62.2399L56.0105 42.3723C55.2014 41.0619 54.411 40.4067 53.3291 40.1409L44.8607 39.1617C43.8372 39.0427 43.1027 38.1171 43.2216 37.0935C43.3405 36.0699 44.2638 35.3355 45.2897 35.4544L53.961 36.4593L54.0566 36.4803C56.9245 37.1215 58.4167 39.1267 59.2887 40.5816L59.368 40.7122L67.3304 60.8712C67.7081 61.8295 67.2395 62.9137 66.2812 63.2915C66.0527 63.3777 65.8195 63.4197 65.5934 63.4197Z" fill="#7DB945"/>
<path d="M28.2854 87.6684C28.0499 87.6684 27.8097 87.6241 27.5766 87.5285L4.93434 78.2231C3.07139 77.5516 1.57916 76.1992 0.728124 74.4109C-0.115918 72.6365 -0.230166 70.643 0.406362 68.787L6.75066 43.5614L6.78097 43.4775C7.74393 40.7798 9.60222 38.8329 12.0131 37.9935L12.1856 37.9422L22.2512 35.494C23.2514 35.2492 24.261 35.8648 24.5035 36.865C24.746 37.8653 24.1328 38.8749 23.1325 39.1174L13.1626 41.5422C11.5584 42.1345 10.7377 43.5358 10.325 44.6479L3.98305 69.8619L3.95274 69.9482C3.61698 70.8902 3.66828 71.9044 4.09729 72.8067C4.52631 73.7091 5.28175 74.3899 6.22372 74.721L6.31232 74.7536L28.9942 84.0754C29.9478 84.4671 30.4025 85.556 30.0108 86.5096C29.7147 87.2324 29.0198 87.6684 28.2854 87.6684Z" fill="#7DB945"/>
<path d="M33.881 76.4767C33.6292 76.4767 33.3704 76.4254 33.1255 76.3158L16.338 68.8547C15.6641 68.5562 15.2305 67.887 15.2305 67.1503V63.4197C15.2305 62.3891 16.0652 61.5544 17.0958 61.5544C18.1263 61.5544 18.961 62.3891 18.961 63.4197V65.9378L34.6411 72.907C35.5831 73.3244 36.0074 74.4272 35.5877 75.3692C35.2776 76.064 34.5945 76.4767 33.881 76.4767Z" fill="#7DB945"/>
<path d="M15.2286 90C14.198 90 13.3633 89.1653 13.3633 88.1347V80.4381C13.3633 79.4075 14.198 78.5728 15.2286 78.5728C16.2591 78.5728 17.0939 79.4075 17.0939 80.4381V88.1347C17.0939 89.1653 16.2591 90 15.2286 90Z" fill="#7DB945"/>
<path d="M33.8812 38.1008C31.5496 38.1008 29.3765 37.1751 27.7607 35.494L23.8273 31.4021C21.8898 29.3876 20.8242 26.7365 20.8242 23.9433V11.1917C20.8242 5.01995 25.8442 0 32.0159 0H35.7465C41.9183 0 46.9382 5.01995 46.9382 11.1917V16.7876H43.2076V11.1917C43.2076 7.07876 39.8595 3.73057 35.7465 3.73057H32.0159C27.903 3.73057 24.5548 7.07876 24.5548 11.1917V23.9433C24.5548 25.7689 25.2519 27.5013 26.518 28.8187L30.4514 32.9106C31.3561 33.8526 32.5755 34.3725 33.8812 34.3725C35.1869 34.3725 36.4063 33.8526 37.311 32.9106L41.2444 28.8187C42.5105 27.5013 43.2076 25.7712 43.2076 23.9433V20.5181H46.9382V23.9433C46.9382 26.7389 45.8703 29.3876 43.9351 31.4021L40.0017 35.494C38.3859 37.1751 36.2128 38.1008 33.8812 38.1008Z" fill="#7DB945"/>
<path d="M58.1297 14.9223H28.2852V18.6528H58.1297V14.9223Z" fill="#7DB945"/>
<path d="M76.7827 76.4767C75.7521 76.4767 74.9174 75.642 74.9174 74.6114V73.9889L54.0262 65.285H24.5547C23.5242 65.285 22.6895 64.4503 22.6895 63.4197C22.6895 62.3891 23.5242 61.5544 24.5547 61.5544H54.3993C54.6464 61.5544 54.8889 61.6034 55.1174 61.699L77.5009 71.0254C78.1957 71.3145 78.648 71.9953 78.648 72.7461V74.6114C78.648 75.642 77.8133 76.4767 76.7827 76.4767Z" fill="#7DB945"/>
</svg>
